<?xml version="1.0" encoding="UTF-8"?> <svg xmlns="http://www.w3.org/2000/svg" viewBox="0 0 243.82 319.62"><defs><style>.cls-1{fill:#f8b55b;}.cls-2{fill:#e62e04;}</style></defs><title>Asset 2</title><g id="Layer_2" data-name="Layer 2"><g id="Layer_1-2" data-name="Layer 1"><path class="cls-1" d="M184,80.45H171.31V56.26c0-24.7-22.16-44.79-49.39-44.79S72.51,31.56,72.51,56.26V80.45H59.87V56.26C59.87,25.24,87.71,0,121.92,0s62,25.24,62,56.26Z"></path><path class="cls-2" d="M243.8,311.25,225.7,87.69A7.75,7.75,0,0,0,218,80.57H180a16.43,16.43,0,1,1-4.79,0H68.59a16.44,16.44,0,1,1-4.79,0H25.85a7.74,7.74,0,0,0-7.72,7.12L0,311.25a7.74,7.74,0,0,0,7.71,8.37H236.08A7.75,7.75,0,0,0,243.8,311.25ZM113.39,171.83l8-8a3.58,3.58,0,0,1,5.06,5.07l-8,7.95a3.58,3.58,0,1,1-5.06-5.06ZM98.77,158.45a3.58,3.58,0,1,1,7.15,0V169.7a3.58,3.58,0,1,1-7.15,0ZM67,190.26a3.58,3.58,0,0,1,3.58-3.58H81.78a3.58,3.58,0,0,1,0,7.16H70.54A3.58,3.58,0,0,1,67,190.26Zm22,16.11-8,7.95A3.58,3.58,0,0,1,76,209.26l8-8A3.58,3.58,0,0,1,89,206.37Zm1.65-27.84a3.57,3.57,0,0,1-5.06,0l-8-7.95a3.58,3.58,0,0,1,5.06-5.06l8,7.95A3.57,3.57,0,0,1,90.62,178.53Zm82.29,71.91-10.39,10.39a3.57,3.57,0,0,1-5.06,0l-21.3-21.29-8.77,15.19a3.57,3.57,0,0,1-6.42-.47L94,186.51a3.58,3.58,0,0,1,4.65-4.65l67.74,27a3.55,3.55,0,0,1,2.25,3.06,3.62,3.62,0,0,1-1.78,3.36l-15.2,8.77,21.3,21.3A3.57,3.57,0,0,1,172.91,250.44Z"></path><path class="cls-2" d="M142.24,222.85a3.54,3.54,0,0,1,1.76-2.63l12.84-7.42-53.16-21.2,21.2,53.16,7.42-12.84a3.59,3.59,0,0,1,2.63-1.76,3.71,3.71,0,0,1,.47,0,3.57,3.57,0,0,1,2.53,1.05L160,253.24l5.33-5.33-22.06-22.06A3.57,3.57,0,0,1,142.24,222.85Z"></path></g></g></svg> 